<svg width="736" height="78" viewBox="0 0 736 78" fill="none" xmlns="http://www.w3.org/2000/svg">
<rect width="736" height="78" rx="30" fill="#96C5AF" fill-opacity="0.85"/>
<path d="M325.925 30.88C327.061 30.88 327.997 31.224 328.733 31.912C329.485 32.584 329.861 33.472 329.861 34.576C329.861 35.408 329.637 36.136 329.189 36.76C328.757 37.384 328.205 37.816 327.533 38.056V38.128C328.301 38.384 328.933 38.856 329.429 39.544C329.941 40.232 330.197 41.048 330.197 41.992C330.197 42.808 330.005 43.52 329.621 44.128C329.237 44.736 328.717 45.2 328.061 45.52C327.421 45.84 326.709 46 325.925 46H320.189V30.88H325.925ZM325.373 37.36C326.093 37.36 326.677 37.128 327.125 36.664C327.573 36.2 327.797 35.64 327.797 34.984C327.797 34.216 327.589 33.632 327.173 33.232C326.773 32.832 326.221 32.632 325.517 32.632H322.133V37.36H325.373ZM325.685 44.224C326.421 44.224 327.021 44.008 327.485 43.576C327.949 43.128 328.181 42.512 328.181 41.728C328.181 41.024 327.933 40.416 327.437 39.904C326.957 39.392 326.325 39.136 325.541 39.136H322.133V44.224H325.685ZM335.764 34.12C336.932 34.12 337.812 34.4 338.404 34.96C338.996 35.52 339.292 36.32 339.292 37.36V43.888C339.292 44.128 339.348 44.32 339.46 44.464C339.572 44.592 339.708 44.656 339.868 44.656H340.612V45.904C340.292 46.08 339.892 46.168 339.412 46.168C338.948 46.168 338.548 46.04 338.212 45.784C337.892 45.528 337.684 45.184 337.588 44.752H337.468C337.164 45.232 336.764 45.608 336.268 45.88C335.788 46.136 335.244 46.264 334.636 46.264C333.852 46.264 333.148 46.032 332.524 45.568C331.9 45.104 331.588 44.248 331.588 43C331.588 41.512 332.092 40.496 333.1 39.952C334.108 39.392 335.564 39.112 337.468 39.112V37.624C337.468 37.016 337.332 36.552 337.06 36.232C336.804 35.912 336.332 35.752 335.644 35.752C335.004 35.752 334.54 35.928 334.252 36.28C333.98 36.632 333.844 37.056 333.844 37.552V37.84H332.068C332.052 37.76 332.044 37.592 332.044 37.336C332.044 36.312 332.38 35.52 333.052 34.96C333.74 34.4 334.644 34.12 335.764 34.12ZM337.468 40.744C336.14 40.744 335.14 40.896 334.468 41.2C333.812 41.488 333.484 42.048 333.484 42.88C333.484 43.52 333.612 43.976 333.868 44.248C334.14 44.52 334.54 44.656 335.068 44.656C335.692 44.656 336.244 44.4 336.724 43.888C337.22 43.376 337.468 42.672 337.468 41.776V40.744ZM345.674 34.12C346.906 34.12 347.802 34.504 348.362 35.272C348.922 36.04 349.202 37.176 349.202 38.68H347.33C347.33 37.64 347.21 36.896 346.97 36.448C346.73 35.984 346.298 35.752 345.674 35.752C344.954 35.752 344.426 36.088 344.09 36.76C343.754 37.416 343.586 38.424 343.586 39.784V40.6C343.586 41.96 343.754 42.976 344.09 43.648C344.426 44.32 344.954 44.656 345.674 44.656C346.298 44.656 346.746 44.416 347.018 43.936C347.29 43.44 347.426 42.696 347.426 41.704H349.202C349.202 43.032 348.914 44.128 348.338 44.992C347.762 45.84 346.874 46.264 345.674 46.264C344.298 46.264 343.29 45.776 342.65 44.8C342.01 43.824 341.69 42.296 341.69 40.216C341.69 38.12 342.01 36.584 342.65 35.608C343.29 34.616 344.298 34.12 345.674 34.12ZM353.186 35.608C353.762 34.616 354.626 34.12 355.778 34.12C356.706 34.12 357.418 34.4 357.914 34.96C358.41 35.504 358.658 36.4 358.658 37.648V46H356.858V37.768C356.858 37.016 356.714 36.496 356.426 36.208C356.154 35.904 355.746 35.752 355.202 35.752C354.61 35.752 354.106 36.04 353.69 36.616C353.274 37.176 353.066 37.944 353.066 38.92V46H351.242V30.04H353.066V35.608H353.186ZM361.081 30.04H362.905V32.224H361.081V30.04ZM361.081 34.384H362.905V46H361.081V34.384ZM365.088 30.04H366.912V46H365.088V30.04ZM369.096 30.04H370.92V46H369.096V30.04ZM377.28 34.12C378.592 34.12 379.56 34.552 380.184 35.416C380.808 36.28 381.12 37.672 381.12 39.592V40.744H374.832C374.848 42.088 375.056 43.08 375.456 43.72C375.872 44.344 376.512 44.656 377.376 44.656C377.952 44.656 378.416 44.424 378.768 43.96C379.136 43.48 379.32 42.848 379.32 42.064H381.12C381.12 43.344 380.768 44.368 380.064 45.136C379.376 45.888 378.464 46.264 377.328 46.264C375.84 46.264 374.728 45.784 373.992 44.824C373.272 43.864 372.912 42.328 372.912 40.216C372.912 38.136 373.272 36.6 373.992 35.608C374.712 34.616 375.808 34.12 377.28 34.12ZM377.28 35.752C376.496 35.752 375.912 36.032 375.528 36.592C375.16 37.136 374.936 37.976 374.856 39.112H379.224C379.224 36.872 378.576 35.752 377.28 35.752ZM387.095 34.12C387.287 34.12 387.463 34.144 387.623 34.192C387.783 34.24 387.887 34.272 387.935 34.288V36.184H387.335C386.711 36.184 386.199 36.4 385.799 36.832C385.399 37.264 385.199 37.96 385.199 38.92V46H383.375V34.384H384.743L385.007 35.92H385.127C385.287 35.408 385.527 34.984 385.847 34.648C386.167 34.296 386.583 34.12 387.095 34.12ZM392.998 34.12C394.166 34.12 395.046 34.4 395.638 34.96C396.23 35.52 396.526 36.32 396.526 37.36V43.888C396.526 44.128 396.582 44.32 396.694 44.464C396.806 44.592 396.942 44.656 397.102 44.656H397.846V45.904C397.526 46.08 397.126 46.168 396.646 46.168C396.182 46.168 395.782 46.04 395.446 45.784C395.126 45.528 394.918 45.184 394.822 44.752H394.702C394.398 45.232 393.998 45.608 393.502 45.88C393.022 46.136 392.478 46.264 391.87 46.264C391.086 46.264 390.382 46.032 389.758 45.568C389.134 45.104 388.822 44.248 388.822 43C388.822 41.512 389.326 40.496 390.334 39.952C391.342 39.392 392.798 39.112 394.702 39.112V37.624C394.702 37.016 394.566 36.552 394.294 36.232C394.038 35.912 393.566 35.752 392.878 35.752C392.238 35.752 391.774 35.928 391.486 36.28C391.214 36.632 391.078 37.056 391.078 37.552V37.84H389.302C389.286 37.76 389.278 37.592 389.278 37.336C389.278 36.312 389.614 35.52 390.286 34.96C390.974 34.4 391.878 34.12 392.998 34.12ZM394.702 40.744C393.374 40.744 392.374 40.896 391.702 41.2C391.046 41.488 390.718 42.048 390.718 42.88C390.718 43.52 390.846 43.976 391.102 44.248C391.374 44.52 391.774 44.656 392.302 44.656C392.926 44.656 393.478 44.4 393.958 43.888C394.454 43.376 394.702 42.672 394.702 41.776V40.744ZM402.789 36.016H401.253V43.6C401.253 43.936 401.341 44.2 401.517 44.392C401.693 44.568 401.949 44.656 402.285 44.656H402.789V45.904C402.645 46 402.453 46.072 402.213 46.12C401.973 46.184 401.733 46.216 401.493 46.216C400.773 46.216 400.245 45.96 399.909 45.448C399.589 44.936 399.429 44.304 399.429 43.552V36.016H398.421V34.384H399.429L399.837 31.168H401.253V34.384H402.789V36.016ZM408.212 34.12C410.98 34.12 412.364 36.152 412.364 40.216C412.364 44.248 410.98 46.264 408.212 46.264C405.428 46.264 404.036 44.248 404.036 40.216C404.036 36.152 405.428 34.12 408.212 34.12ZM408.212 35.752C406.692 35.752 405.932 37.096 405.932 39.784V40.6C405.932 43.304 406.692 44.656 408.212 44.656C409.716 44.656 410.468 43.304 410.468 40.6V39.784C410.468 38.456 410.276 37.456 409.892 36.784C409.524 36.096 408.964 35.752 408.212 35.752Z" fill="black"/>
</svg>
