<svg width="736" height="78" viewBox="0 0 736 78" fill="none" xmlns="http://www.w3.org/2000/svg">
<rect width="736" height="78" rx="30" fill="#96C5AF" fill-opacity="0.85"/>
<path d="M343.023 30.88C344.159 30.88 345.095 31.224 345.831 31.912C346.583 32.584 346.959 33.472 346.959 34.576C346.959 35.408 346.735 36.136 346.287 36.76C345.855 37.384 345.303 37.816 344.631 38.056V38.128C345.399 38.384 346.031 38.856 346.527 39.544C347.039 40.232 347.295 41.048 347.295 41.992C347.295 42.808 347.103 43.52 346.719 44.128C346.335 44.736 345.815 45.2 345.159 45.52C344.519 45.84 343.807 46 343.023 46H337.287V30.88H343.023ZM342.471 37.36C343.191 37.36 343.775 37.128 344.223 36.664C344.671 36.2 344.895 35.64 344.895 34.984C344.895 34.216 344.687 33.632 344.271 33.232C343.871 32.832 343.319 32.632 342.615 32.632H339.231V37.36H342.471ZM342.783 44.224C343.519 44.224 344.119 44.008 344.583 43.576C345.047 43.128 345.279 42.512 345.279 41.728C345.279 41.024 345.031 40.416 344.535 39.904C344.055 39.392 343.423 39.136 342.639 39.136H339.231V44.224H342.783ZM353.077 32.968H351.565L353.461 30.04H355.453V30.136L353.077 32.968ZM352.861 34.12C354.029 34.12 354.909 34.4 355.501 34.96C356.093 35.52 356.389 36.32 356.389 37.36V43.888C356.389 44.128 356.445 44.32 356.557 44.464C356.669 44.592 356.805 44.656 356.965 44.656H357.709V45.904C357.389 46.08 356.989 46.168 356.509 46.168C356.045 46.168 355.645 46.04 355.309 45.784C354.989 45.528 354.781 45.184 354.685 44.752H354.565C354.261 45.232 353.861 45.608 353.365 45.88C352.885 46.136 352.341 46.264 351.733 46.264C350.949 46.264 350.245 46.032 349.621 45.568C348.997 45.104 348.685 44.248 348.685 43C348.685 41.512 349.189 40.496 350.197 39.952C351.205 39.392 352.661 39.112 354.565 39.112V37.624C354.565 37.016 354.429 36.552 354.157 36.232C353.901 35.912 353.429 35.752 352.741 35.752C352.101 35.752 351.637 35.928 351.349 36.28C351.077 36.632 350.941 37.056 350.941 37.552V37.84H349.165C349.149 37.76 349.141 37.592 349.141 37.336C349.141 36.312 349.477 35.52 350.149 34.96C350.837 34.4 351.741 34.12 352.861 34.12ZM354.565 40.744C353.237 40.744 352.237 40.896 351.565 41.2C350.909 41.488 350.581 42.048 350.581 42.88C350.581 43.52 350.709 43.976 350.965 44.248C351.237 44.52 351.637 44.656 352.165 44.656C352.789 44.656 353.341 44.4 353.821 43.888C354.317 43.376 354.565 42.672 354.565 41.776V40.744ZM362.604 34.12C363.644 34.12 364.46 34.424 365.052 35.032C365.644 35.64 365.94 36.4 365.94 37.312L365.916 37.744H364.044V37.528C364.044 37.016 363.916 36.592 363.66 36.256C363.404 35.904 362.996 35.728 362.436 35.728C361.86 35.728 361.452 35.888 361.212 36.208C360.988 36.528 360.876 36.896 360.876 37.312C360.876 37.792 361.044 38.16 361.38 38.416C361.732 38.656 362.268 38.896 362.988 39.136C363.644 39.36 364.18 39.592 364.596 39.832C365.028 40.056 365.396 40.4 365.7 40.864C366.004 41.328 366.156 41.936 366.156 42.688C366.156 43.888 365.82 44.784 365.148 45.376C364.476 45.968 363.58 46.264 362.46 46.264C361.212 46.264 360.276 45.936 359.652 45.28C359.028 44.624 358.716 43.816 358.716 42.856C358.716 42.68 358.716 42.56 358.716 42.496C358.732 42.432 358.74 42.392 358.74 42.376H360.636V42.616C360.636 43.304 360.812 43.824 361.164 44.176C361.516 44.512 361.972 44.68 362.532 44.68C363.028 44.68 363.444 44.528 363.78 44.224C364.116 43.92 364.284 43.496 364.284 42.952C364.284 42.536 364.18 42.2 363.972 41.944C363.78 41.672 363.532 41.464 363.228 41.32C362.94 41.16 362.532 40.984 362.004 40.792C361.348 40.552 360.82 40.328 360.42 40.12C360.036 39.896 359.7 39.568 359.412 39.136C359.14 38.704 359.004 38.136 359.004 37.432C359.004 36.408 359.324 35.6 359.964 35.008C360.62 34.416 361.5 34.12 362.604 34.12ZM368.124 30.04H369.948V32.224H368.124V30.04ZM368.124 34.384H369.948V46H368.124V34.384ZM375.803 34.12C377.035 34.12 377.931 34.504 378.491 35.272C379.051 36.04 379.331 37.176 379.331 38.68H377.459C377.459 37.64 377.339 36.896 377.099 36.448C376.859 35.984 376.427 35.752 375.803 35.752C375.083 35.752 374.555 36.088 374.219 36.76C373.883 37.416 373.715 38.424 373.715 39.784V40.6C373.715 41.96 373.883 42.976 374.219 43.648C374.555 44.32 375.083 44.656 375.803 44.656C376.427 44.656 376.875 44.416 377.147 43.936C377.419 43.44 377.555 42.696 377.555 41.704H379.331C379.331 43.032 379.043 44.128 378.467 44.992C377.891 45.84 377.003 46.264 375.803 46.264C374.427 46.264 373.419 45.776 372.779 44.8C372.139 43.824 371.819 42.296 371.819 40.216C371.819 38.12 372.139 36.584 372.779 35.608C373.419 34.616 374.427 34.12 375.803 34.12ZM385.091 34.12C387.859 34.12 389.243 36.152 389.243 40.216C389.243 44.248 387.859 46.264 385.091 46.264C382.307 46.264 380.915 44.248 380.915 40.216C380.915 36.152 382.307 34.12 385.091 34.12ZM385.091 35.752C383.571 35.752 382.811 37.096 382.811 39.784V40.6C382.811 43.304 383.571 44.656 385.091 44.656C386.595 44.656 387.347 43.304 387.347 40.6V39.784C387.347 38.456 387.155 37.456 386.771 36.784C386.403 36.096 385.843 35.752 385.091 35.752ZM394.713 34.12C395.753 34.12 396.569 34.424 397.161 35.032C397.753 35.64 398.049 36.4 398.049 37.312L398.025 37.744H396.153V37.528C396.153 37.016 396.025 36.592 395.769 36.256C395.513 35.904 395.105 35.728 394.545 35.728C393.969 35.728 393.561 35.888 393.321 36.208C393.097 36.528 392.985 36.896 392.985 37.312C392.985 37.792 393.153 38.16 393.489 38.416C393.841 38.656 394.377 38.896 395.097 39.136C395.753 39.36 396.289 39.592 396.705 39.832C397.137 40.056 397.505 40.4 397.809 40.864C398.113 41.328 398.265 41.936 398.265 42.688C398.265 43.888 397.929 44.784 397.257 45.376C396.585 45.968 395.689 46.264 394.569 46.264C393.321 46.264 392.385 45.936 391.761 45.28C391.137 44.624 390.825 43.816 390.825 42.856C390.825 42.68 390.825 42.56 390.825 42.496C390.841 42.432 390.849 42.392 390.849 42.376H392.745V42.616C392.745 43.304 392.921 43.824 393.273 44.176C393.625 44.512 394.081 44.68 394.641 44.68C395.137 44.68 395.553 44.528 395.889 44.224C396.225 43.92 396.393 43.496 396.393 42.952C396.393 42.536 396.289 42.2 396.081 41.944C395.889 41.672 395.641 41.464 395.337 41.32C395.049 41.16 394.641 40.984 394.113 40.792C393.457 40.552 392.929 40.328 392.529 40.12C392.145 39.896 391.809 39.568 391.521 39.136C391.249 38.704 391.113 38.136 391.113 37.432C391.113 36.408 391.433 35.6 392.073 35.008C392.729 34.416 393.609 34.12 394.713 34.12Z" fill="black"/>
</svg>
