<svg width="736" height="78" viewBox="0 0 736 78" fill="none" xmlns="http://www.w3.org/2000/svg">
<rect width="736" height="78" rx="30" fill="#96C5AF" fill-opacity="0.85"/>
<path d="M335.38 46V30.88H340.78C342.252 30.88 343.372 31.28 344.14 32.08C344.924 32.864 345.316 33.928 345.316 35.272C345.316 36.616 344.908 37.704 344.092 38.536C343.276 39.352 342.172 39.76 340.78 39.76H337.348V46H335.38ZM340.732 37.984C341.516 37.984 342.132 37.736 342.58 37.24C343.044 36.744 343.276 36.088 343.276 35.272C343.276 34.44 343.052 33.792 342.604 33.328C342.172 32.864 341.548 32.632 340.732 32.632H337.348V37.984H340.732ZM350.954 34.12C351.146 34.12 351.322 34.144 351.482 34.192C351.642 34.24 351.746 34.272 351.794 34.288V36.184H351.194C350.57 36.184 350.058 36.4 349.658 36.832C349.258 37.264 349.058 37.96 349.058 38.92V46H347.234V34.384H348.602L348.866 35.92H348.986C349.146 35.408 349.386 34.984 349.706 34.648C350.026 34.296 350.442 34.12 350.954 34.12ZM353.042 30.04H354.866V32.224H353.042V30.04ZM353.042 34.384H354.866V46H353.042V34.384ZM366.961 34.12C368.785 34.12 369.697 35.296 369.697 37.648V46H367.873V37.768C367.873 37.016 367.745 36.496 367.489 36.208C367.233 35.904 366.865 35.752 366.385 35.752C365.825 35.752 365.353 36.04 364.969 36.616C364.601 37.176 364.417 37.944 364.417 38.92V46H362.593V37.768C362.593 37.016 362.457 36.496 362.185 36.208C361.929 35.904 361.561 35.752 361.081 35.752C360.521 35.752 360.049 36.04 359.665 36.616C359.281 37.176 359.089 37.944 359.089 38.92V46H357.265V34.384H358.633L358.897 35.752H359.017C359.609 34.664 360.489 34.12 361.657 34.12C362.889 34.12 363.713 34.688 364.129 35.824C364.433 35.28 364.833 34.864 365.329 34.576C365.841 34.272 366.385 34.12 366.961 34.12ZM375.936 34.12C377.104 34.12 377.984 34.4 378.576 34.96C379.168 35.52 379.464 36.32 379.464 37.36V43.888C379.464 44.128 379.52 44.32 379.632 44.464C379.744 44.592 379.88 44.656 380.04 44.656H380.784V45.904C380.464 46.08 380.064 46.168 379.584 46.168C379.12 46.168 378.72 46.04 378.384 45.784C378.064 45.528 377.856 45.184 377.76 44.752H377.64C377.336 45.232 376.936 45.608 376.44 45.88C375.96 46.136 375.416 46.264 374.808 46.264C374.024 46.264 373.32 46.032 372.696 45.568C372.072 45.104 371.76 44.248 371.76 43C371.76 41.512 372.264 40.496 373.272 39.952C374.28 39.392 375.736 39.112 377.64 39.112V37.624C377.64 37.016 377.504 36.552 377.232 36.232C376.976 35.912 376.504 35.752 375.816 35.752C375.176 35.752 374.712 35.928 374.424 36.28C374.152 36.632 374.016 37.056 374.016 37.552V37.84H372.24C372.224 37.76 372.216 37.592 372.216 37.336C372.216 36.312 372.552 35.52 373.224 34.96C373.912 34.4 374.816 34.12 375.936 34.12ZM377.64 40.744C376.312 40.744 375.312 40.896 374.64 41.2C373.984 41.488 373.656 42.048 373.656 42.88C373.656 43.52 373.784 43.976 374.04 44.248C374.312 44.52 374.712 44.656 375.24 44.656C375.864 44.656 376.416 44.4 376.896 43.888C377.392 43.376 377.64 42.672 377.64 41.776V40.744ZM386.11 34.12C386.302 34.12 386.478 34.144 386.638 34.192C386.798 34.24 386.902 34.272 386.95 34.288V36.184H386.35C385.726 36.184 385.214 36.4 384.814 36.832C384.414 37.264 384.214 37.96 384.214 38.92V46H382.39V34.384H383.758L384.022 35.92H384.142C384.302 35.408 384.542 34.984 384.862 34.648C385.182 34.296 385.598 34.12 386.11 34.12ZM388.198 30.04H390.022V32.224H388.198V30.04ZM388.198 34.384H390.022V46H388.198V34.384ZM396.022 34.12C397.19 34.12 398.07 34.4 398.662 34.96C399.254 35.52 399.55 36.32 399.55 37.36V43.888C399.55 44.128 399.606 44.32 399.718 44.464C399.83 44.592 399.966 44.656 400.126 44.656H400.87V45.904C400.55 46.08 400.15 46.168 399.67 46.168C399.206 46.168 398.806 46.04 398.47 45.784C398.15 45.528 397.942 45.184 397.846 44.752H397.726C397.422 45.232 397.022 45.608 396.526 45.88C396.046 46.136 395.502 46.264 394.894 46.264C394.11 46.264 393.406 46.032 392.782 45.568C392.158 45.104 391.846 44.248 391.846 43C391.846 41.512 392.35 40.496 393.358 39.952C394.366 39.392 395.822 39.112 397.726 39.112V37.624C397.726 37.016 397.59 36.552 397.318 36.232C397.062 35.912 396.59 35.752 395.902 35.752C395.262 35.752 394.798 35.928 394.51 36.28C394.238 36.632 394.102 37.056 394.102 37.552V37.84H392.326C392.31 37.76 392.302 37.592 392.302 37.336C392.302 36.312 392.638 35.52 393.31 34.96C393.998 34.4 394.902 34.12 396.022 34.12ZM397.726 40.744C396.398 40.744 395.398 40.896 394.726 41.2C394.07 41.488 393.742 42.048 393.742 42.88C393.742 43.52 393.87 43.976 394.126 44.248C394.398 44.52 394.798 44.656 395.326 44.656C395.95 44.656 396.502 44.4 396.982 43.888C397.478 43.376 397.726 42.672 397.726 41.776V40.744Z" fill="black"/>
</svg>
