<svg width="736" height="78" viewBox="0 0 736 78" fill="none" xmlns="http://www.w3.org/2000/svg">
<rect width="736" height="78" rx="30" fill="#96C5AF" fill-opacity="0.85"/>
<path d="M317.286 46V30.88H322.686C324.158 30.88 325.278 31.28 326.046 32.08C326.83 32.864 327.222 33.928 327.222 35.272C327.222 36.616 326.814 37.704 325.998 38.536C325.182 39.352 324.078 39.76 322.686 39.76H319.254V46H317.286ZM322.638 37.984C323.422 37.984 324.038 37.736 324.486 37.24C324.95 36.744 325.182 36.088 325.182 35.272C325.182 34.44 324.958 33.792 324.51 33.328C324.078 32.864 323.454 32.632 322.638 32.632H319.254V37.984H322.638ZM332.86 34.12C333.052 34.12 333.228 34.144 333.388 34.192C333.548 34.24 333.652 34.272 333.7 34.288V36.184H333.1C332.476 36.184 331.964 36.4 331.564 36.832C331.164 37.264 330.964 37.96 330.964 38.92V46H329.14V34.384H330.508L330.772 35.92H330.892C331.052 35.408 331.292 34.984 331.612 34.648C331.932 34.296 332.348 34.12 332.86 34.12ZM339.124 34.12C340.436 34.12 341.404 34.552 342.028 35.416C342.652 36.28 342.964 37.672 342.964 39.592V40.744H336.676C336.692 42.088 336.9 43.08 337.3 43.72C337.716 44.344 338.356 44.656 339.22 44.656C339.796 44.656 340.26 44.424 340.612 43.96C340.98 43.48 341.164 42.848 341.164 42.064H342.964C342.964 43.344 342.612 44.368 341.908 45.136C341.22 45.888 340.308 46.264 339.172 46.264C337.684 46.264 336.572 45.784 335.836 44.824C335.116 43.864 334.756 42.328 334.756 40.216C334.756 38.136 335.116 36.6 335.836 35.608C336.556 34.616 337.652 34.12 339.124 34.12ZM339.124 35.752C338.34 35.752 337.756 36.032 337.372 36.592C337.004 37.136 336.78 37.976 336.7 39.112H341.068C341.068 36.872 340.42 35.752 339.124 35.752ZM350.474 46V30.88H355.874C357.346 30.88 358.466 31.28 359.234 32.08C360.018 32.864 360.41 33.928 360.41 35.272C360.41 36.616 360.002 37.704 359.186 38.536C358.37 39.352 357.266 39.76 355.874 39.76H352.442V46H350.474ZM355.826 37.984C356.61 37.984 357.226 37.736 357.674 37.24C358.138 36.744 358.37 36.088 358.37 35.272C358.37 34.44 358.146 33.792 357.698 33.328C357.266 32.864 356.642 32.632 355.826 32.632H352.442V37.984H355.826ZM366.048 34.12C366.24 34.12 366.416 34.144 366.576 34.192C366.736 34.24 366.84 34.272 366.888 34.288V36.184H366.288C365.664 36.184 365.152 36.4 364.752 36.832C364.352 37.264 364.152 37.96 364.152 38.92V46H362.328V34.384H363.696L363.96 35.92H364.08C364.24 35.408 364.48 34.984 364.8 34.648C365.12 34.296 365.536 34.12 366.048 34.12ZM368.135 30.04H369.959V32.224H368.135V30.04ZM368.135 34.384H369.959V46H368.135V34.384ZM382.055 34.12C383.879 34.12 384.791 35.296 384.791 37.648V46H382.967V37.768C382.967 37.016 382.839 36.496 382.583 36.208C382.327 35.904 381.959 35.752 381.479 35.752C380.919 35.752 380.447 36.04 380.063 36.616C379.695 37.176 379.511 37.944 379.511 38.92V46H377.687V37.768C377.687 37.016 377.551 36.496 377.279 36.208C377.023 35.904 376.655 35.752 376.175 35.752C375.615 35.752 375.143 36.04 374.759 36.616C374.375 37.176 374.183 37.944 374.183 38.92V46H372.359V34.384H373.727L373.991 35.752H374.111C374.703 34.664 375.583 34.12 376.751 34.12C377.983 34.12 378.807 34.688 379.223 35.824C379.527 35.28 379.927 34.864 380.423 34.576C380.935 34.272 381.479 34.12 382.055 34.12ZM391.029 34.12C392.197 34.12 393.077 34.4 393.669 34.96C394.261 35.52 394.557 36.32 394.557 37.36V43.888C394.557 44.128 394.613 44.32 394.725 44.464C394.837 44.592 394.973 44.656 395.133 44.656H395.877V45.904C395.557 46.08 395.157 46.168 394.677 46.168C394.213 46.168 393.813 46.04 393.477 45.784C393.157 45.528 392.949 45.184 392.853 44.752H392.733C392.429 45.232 392.029 45.608 391.533 45.88C391.053 46.136 390.509 46.264 389.901 46.264C389.117 46.264 388.413 46.032 387.789 45.568C387.165 45.104 386.853 44.248 386.853 43C386.853 41.512 387.357 40.496 388.365 39.952C389.373 39.392 390.829 39.112 392.733 39.112V37.624C392.733 37.016 392.597 36.552 392.325 36.232C392.069 35.912 391.597 35.752 390.909 35.752C390.269 35.752 389.805 35.928 389.517 36.28C389.245 36.632 389.109 37.056 389.109 37.552V37.84H387.333C387.317 37.76 387.309 37.592 387.309 37.336C387.309 36.312 387.645 35.52 388.317 34.96C389.005 34.4 389.909 34.12 391.029 34.12ZM392.733 40.744C391.405 40.744 390.405 40.896 389.733 41.2C389.077 41.488 388.749 42.048 388.749 42.88C388.749 43.52 388.877 43.976 389.133 44.248C389.405 44.52 389.805 44.656 390.333 44.656C390.957 44.656 391.509 44.4 391.989 43.888C392.485 43.376 392.733 42.672 392.733 41.776V40.744ZM401.204 34.12C401.396 34.12 401.572 34.144 401.732 34.192C401.892 34.24 401.996 34.272 402.044 34.288V36.184H401.444C400.82 36.184 400.308 36.4 399.908 36.832C399.508 37.264 399.308 37.96 399.308 38.92V46H397.484V34.384H398.852L399.116 35.92H399.236C399.396 35.408 399.636 34.984 399.956 34.648C400.276 34.296 400.692 34.12 401.204 34.12ZM403.292 30.04H405.116V32.224H403.292V30.04ZM403.292 34.384H405.116V46H403.292V34.384ZM411.115 34.12C412.283 34.12 413.163 34.4 413.755 34.96C414.347 35.52 414.643 36.32 414.643 37.36V43.888C414.643 44.128 414.699 44.32 414.811 44.464C414.923 44.592 415.059 44.656 415.219 44.656H415.963V45.904C415.643 46.08 415.243 46.168 414.763 46.168C414.299 46.168 413.899 46.04 413.563 45.784C413.243 45.528 413.035 45.184 412.939 44.752H412.819C412.515 45.232 412.115 45.608 411.619 45.88C411.139 46.136 410.595 46.264 409.987 46.264C409.203 46.264 408.499 46.032 407.875 45.568C407.251 45.104 406.939 44.248 406.939 43C406.939 41.512 407.443 40.496 408.451 39.952C409.459 39.392 410.915 39.112 412.819 39.112V37.624C412.819 37.016 412.683 36.552 412.411 36.232C412.155 35.912 411.683 35.752 410.995 35.752C410.355 35.752 409.891 35.928 409.603 36.28C409.331 36.632 409.195 37.056 409.195 37.552V37.84H407.419C407.403 37.76 407.395 37.592 407.395 37.336C407.395 36.312 407.731 35.52 408.403 34.96C409.091 34.4 409.995 34.12 411.115 34.12ZM412.819 40.744C411.491 40.744 410.491 40.896 409.819 41.2C409.163 41.488 408.835 42.048 408.835 42.88C408.835 43.52 408.963 43.976 409.219 44.248C409.491 44.52 409.891 44.656 410.419 44.656C411.043 44.656 411.595 44.4 412.075 43.888C412.571 43.376 412.819 42.672 412.819 41.776V40.744Z" fill="black"/>
</svg>
